<?xml version="1.0" standalone="no"?>
<!DOCTYPE svg PUBLIC "-//W3C//DTD SVG 20010904//EN"
 "http://www.w3.org/TR/2001/REC-SVG-20010904/DTD/svg10.dtd">
<svg version="1.0" xmlns="http://www.w3.org/2000/svg"
 width="424.000000pt" height="424.000000pt" viewBox="0 0 424.000000 424.000000"
 preserveAspectRatio="xMidYMid meet">
<metadata>
Created by potrace 1.11, written by Peter Selinger 2001-2013
</metadata>
<g transform="translate(0.000000,424.000000) scale(0.100000,-0.100000)"
fill="#000000" stroke="none">
<path d="M3794 2900 c-42 -13 -121 -84 -143 -129 -46 -90 -30 -192 39 -261 22
-22 34 -40 26 -40 -7 0 -21 -11 -30 -25 -14 -22 -16 -84 -16 -560 l0 -535 27
-11 c40 -15 308 -8 325 9 10 10 13 126 13 565 l0 552 -35 5 -34 5 26 17 c15
10 40 39 55 65 24 42 28 58 28 129 0 71 -3 85 -28 122 -40 61 -94 93 -164 98
-32 2 -72 -1 -89 -6z"/>
<path d="M2518 2845 c-16 -22 -18 -60 -19 -442 l0 -418 -19 77 c-52 209 -176
350 -366 414 -138 46 -288 36 -419 -28 -127 -62 -222 -158 -284 -288 l-36 -75
-7 70 c-28 259 -193 488 -426 592 -112 50 -213 63 -483 63 l-247 0 -16 -25
c-14 -22 -16 -97 -16 -730 l0 -705 28 -11 c18 -7 114 -9 282 -6 218 4 266 8
334 26 194 52 371 194 458 367 24 49 47 100 51 114 9 35 17 20 33 -60 21 -112
74 -211 158 -294 118 -118 235 -166 401 -166 158 0 277 50 391 164 82 82 124
157 157 282 l23 86 18 -81 c44 -207 187 -366 383 -428 75 -23 95 -25 196 -21
125 6 192 26 285 85 173 110 273 323 259 554 -10 161 -72 295 -184 398 -161
148 -396 188 -573 96 l-33 -17 7 119 c3 65 9 162 12 216 l7 97 -169 0 c-167
-1 -169 -1 -186 -25z m-1799 -446 c68 -14 162 -77 200 -133 47 -67 63 -121 64
-206 1 -188 -129 -318 -330 -328 l-83 -5 0 342 0 341 50 0 c27 0 72 -5 99 -11z
m1300 -310 c97 -54 132 -215 68 -311 -28 -42 -99 -78 -152 -78 -181 1 -275
244 -142 368 58 54 152 63 226 21z m1136 5 c48 -22 91 -82 104 -145 45 -210
-187 -334 -327 -174 -43 48 -52 73 -52 144 0 147 142 238 275 175z"/>
</g>
</svg>
